{
	"asset":{
		"generator":"Khronos glTF Blender I/O v3.6.27",
		"version":"2.0"
	},
	"scene":0,
	"scenes":[
		{
			"name":"Scene",
			"nodes":[
				0
			]
		}
	],
	"nodes":[
		{
			"mesh":0,
			"name":"glasses",
			"translation":[
				-75,
				0,
				38
			]
		}
	],
	"meshes":[
		{
			"name":"glasses",
			"primitives":[
				{
					"attributes":{
						"POSITION":0,
						"NORMAL":1
					},
					"indices":2
				}
			]
		}
	],
	"accessors":[
		{
			"bufferView":0,
			"componentType":5126,
			"count":1472,
			"max":[
				149.47767639160156,
				178.4444580078125,
				0
			],
			"min":[
				0,
				-1.734723475976807e-15,
				-55.61484909057617
			],
			"type":"VEC3"
		},
		{
			"bufferView":1,
			"componentType":5126,
			"count":1472,
			"type":"VEC3"
		},
		{
			"bufferView":2,
			"componentType":5123,
			"count":2412,
			"type":"SCALAR"
		}
	],
	"bufferViews":[
		{
			"buffer":0,
			"byteLength":17664,
			"byteOffset":0,
			"target":34962
		},
		{
			"buffer":0,
			"byteLength":17664,
			"byteOffset":17664,
			"target":34962
		},
		{
			"buffer":0,
			"byteLength":4824,
			"byteOffset":35328,
			"target":34963
		}
	],
	"buffers":[
		{
			"byteLength":40152,
			"uri":"data:application/octet-stream;base64,"
		}
	]
}
