{
	"asset":{
		"generator":"Khronos glTF Blender I/O v3.6.27",
		"version":"2.0"
	},
	"scene":0,
	"scenes":[
		{
			"name":"Scene",
			"nodes":[
				0,
				1,
				2
			]
		}
	],
	"nodes":[
		{
			"mesh":0,
			"name":"glasses",
			"rotation":[
				0,
				0,
				1,
				1.6292068494294654e-07
			],
			"translation":[
				75,
				0,
				30
			]
		},
		{
			"mesh":1,
			"name":"Cube",
			"translation":[
				-41.6946907043457,
				-2.213254928588867,
				1.1044161319732666
			]
		},
		{
			"mesh":2,
			"name":"Cube.001",
			"translation":[
				41.82944107055664,
				-2.213254928588867,
				1.1044161319732666
			]
		}
	],
	"animations":[
		{
			"channels":[
				{
					"sampler":0,
					"target":{
						"node":0,
						"path":"translation"
					}
				},
				{
					"sampler":1,
					"target":{
						"node":0,
						"path":"rotation"
					}
				},
				{
					"sampler":2,
					"target":{
						"node":0,
						"path":"scale"
					}
				}
			],
			"name":"glassesAction",
			"samplers":[
				{
					"input":10,
					"interpolation":"STEP",
					"output":11
				},
				{
					"input":12,
					"interpolation":"LINEAR",
					"output":13
				},
				{
					"input":10,
					"interpolation":"STEP",
					"output":14
				}
			]
		},
		{
			"channels":[
				{
					"sampler":0,
					"target":{
						"node":1,
						"path":"translation"
					}
				},
				{
					"sampler":1,
					"target":{
						"node":1,
						"path":"rotation"
					}
				},
				{
					"sampler":2,
					"target":{
						"node":1,
						"path":"scale"
					}
				}
			],
			"name":"CubeAction.001",
			"samplers":[
				{
					"input":10,
					"interpolation":"STEP",
					"output":15
				},
				{
					"input":12,
					"interpolation":"LINEAR",
					"output":16
				},
				{
					"input":12,
					"interpolation":"LINEAR",
					"output":17
				}
			]
		},
		{
			"channels":[
				{
					"sampler":0,
					"target":{
						"node":2,
						"path":"translation"
					}
				},
				{
					"sampler":1,
					"target":{
						"node":2,
						"path":"rotation"
					}
				},
				{
					"sampler":2,
					"target":{
						"node":2,
						"path":"scale"
					}
				}
			],
			"name":"CubeAction.003",
			"samplers":[
				{
					"input":10,
					"interpolation":"STEP",
					"output":18
				},
				{
					"input":12,
					"interpolation":"LINEAR",
					"output":19
				},
				{
					"input":12,
					"interpolation":"LINEAR",
					"output":20
				}
			]
		}
	],
	"meshes":[
		{
			"name":"glasses",
			"primitives":[
				{
					"attributes":{
						"POSITION":0,
						"NORMAL":1
					},
					"indices":2
				}
			]
		},
		{
			"name":"Cube.002",
			"primitives":[
				{
					"attributes":{
						"POSITION":3,
						"NORMAL":4,
						"TEXCOORD_0":5
					},
					"indices":6
				}
			]
		},
		{
			"name":"Cube.004",
			"primitives":[
				{
					"attributes":{
						"POSITION":7,
						"NORMAL":8,
						"TEXCOORD_0":9
					},
					"indices":6
				}
			]
		}
	],
	"accessors":[
		{
			"bufferView":0,
			"componentType":5126,
			"count":1472,
			"max":[
				149.47767639160156,
				178.4444580078125,
				0
			],
			"min":[
				0,
				-1.734723475976807e-15,
				-55.61484909057617
			],
			"type":"VEC3"
		},
		{
			"bufferView":1,
			"componentType":5126,
			"count":1472,
			"type":"VEC3"
		},
		{
			"bufferView":2,
			"componentType":5123,
			"count":2412,
			"type":"SCALAR"
		},
		{
			"bufferView":3,
			"componentType":5126,
			"count":24,
			"max":[
				9.999999046325684,
				10,
				10
			],
			"min":[
				-9.999999046325684,
				-10,
				-10
			],
			"type":"VEC3"
		},
		{
			"bufferView":4,
			"componentType":5126,
			"count":24,
			"type":"VEC3"
		},
		{
			"bufferView":5,
			"componentType":5126,
			"count":24,
			"type":"VEC2"
		},
		{
			"bufferView":6,
			"componentType":5123,
			"count":36,
			"type":"SCALAR"
		},
		{
			"bufferView":7,
			"componentType":5126,
			"count":24,
			"max":[
				9.999999046325684,
				10,
				10
			],
			"min":[
				-9.999999046325684,
				-10,
				-10
			],
			"type":"VEC3"
		},
		{
			"bufferView":8,
			"componentType":5126,
			"count":24,
			"type":"VEC3"
		},
		{
			"bufferView":9,
			"componentType":5126,
			"count":24,
			"type":"VEC2"
		},
		{
			"bufferView":10,
			"componentType":5126,
			"count":2,
			"max":[
				3.75
			],
			"min":[
				0
			],
			"type":"SCALAR"
		},
		{
			"bufferView":11,
			"componentType":5126,
			"count":2,
			"type":"VEC3"
		},
		{
			"bufferView":12,
			"componentType":5126,
			"count":91,
			"max":[
				3.75
			],
			"min":[
				0
			],
			"type":"SCALAR"
		},
		{
			"bufferView":13,
			"componentType":5126,
			"count":91,
			"type":"VEC4"
		},
		{
			"bufferView":14,
			"componentType":5126,
			"count":2,
			"type":"VEC3"
		},
		{
			"bufferView":15,
			"componentType":5126,
			"count":2,
			"type":"VEC3"
		},
		{
			"bufferView":16,
			"componentType":5126,
			"count":91,
			"type":"VEC4"
		},
		{
			"bufferView":17,
			"componentType":5126,
			"count":91,
			"type":"VEC3"
		},
		{
			"bufferView":18,
			"componentType":5126,
			"count":2,
			"type":"VEC3"
		},
		{
			"bufferView":19,
			"componentType":5126,
			"count":91,
			"type":"VEC4"
		},
		{
			"bufferView":20,
			"componentType":5126,
			"count":91,
			"type":"VEC3"
		}
	],
	"bufferViews":[
		{
			"buffer":0,
			"byteLength":17664,
			"byteOffset":0,
			"target":34962
		},
		{
			"buffer":0,
			"byteLength":17664,
			"byteOffset":17664,
			"target":34962
		},
		{
			"buffer":0,
			"byteLength":4824,
			"byteOffset":35328,
			"target":34963
		},
		{
			"buffer":0,
			"byteLength":288,
			"byteOffset":40152,
			"target":34962
		},
		{
			"buffer":0,
			"byteLength":288,
			"byteOffset":40440,
			"target":34962
		},
		{
			"buffer":0,
			"byteLength":192,
			"byteOffset":40728,
			"target":34962
		},
		{
			"buffer":0,
			"byteLength":72,
			"byteOffset":40920,
			"target":34963
		},
		{
			"buffer":0,
			"byteLength":288,
			"byteOffset":40992,
			"target":34962
		},
		{
			"buffer":0,
			"byteLength":288,
			"byteOffset":41280,
			"target":34962
		},
		{
			"buffer":0,
			"byteLength":192,
			"byteOffset":41568,
			"target":34962
		},
		{
			"buffer":0,
			"byteLength":8,
			"byteOffset":41760
		},
		{
			"buffer":0,
			"byteLength":24,
			"byteOffset":41768
		},
		{
			"buffer":0,
			"byteLength":364,
			"byteOffset":41792
		},
		{
			"buffer":0,
			"byteLength":1456,
			"byteOffset":42156
		},
		{
			"buffer":0,
			"byteLength":24,
			"byteOffset":43612
		},
		{
			"buffer":0,
			"byteLength":24,
			"byteOffset":43636
		},
		{
			"buffer":0,
			"byteLength":1456,
			"byteOffset":43660
		},
		{
			"buffer":0,
			"byteLength":1092,
			"byteOffset":45116
		},
		{
			"buffer":0,
			"byteLength":24,
			"byteOffset":46208
		},
		{
			"buffer":0,
			"byteLength":1456,
			"byteOffset":46232
		},
		{
			"buffer":0,
			"byteLength":1092,
			"byteOffset":47688
		}
	],
	"buffers":[
		{
			"byteLength":48780,
			"uri":"data:application/octet-stream;base64,"
		}
	]
}
